<?xml version="1.0" encoding="UTF-8"?>
<!DOCTYPE svg PUBLIC "-//W3C//DTD SVG 1.1//EN" "http://www.w3.org/Graphics/SVG/1.1/DTD/svg11.dtd">
<!-- Creator: CorelDRAW 2018 (64-Bit Evaluation Version) -->
<svg xmlns="http://www.w3.org/2000/svg" xml:space="preserve" width="165.711mm" height="165.711mm" version="1.1" style="shape-rendering:geometricPrecision; text-rendering:geometricPrecision; image-rendering:optimizeQuality; fill-rule:evenodd; clip-rule:evenodd"
viewBox="0 0 1705918 1705918"
 xmlns:xlink="http://www.w3.org/1999/xlink">
 <defs>
  <style type="text/css">
   <![CDATA[
    .fil0 {fill:#66FCF1}
   ]]>
  </style>
 </defs>
 <g id="Layer_x0020_1">
  <metadata id="CorelCorpID_0Corel-Layer"/>
  <g id="_2516249880576">
   <path class="fil0" d="M1065591 599764l-3325 -91 -2123 822 -2287 -28 -1779 932 -1757 -119 -1559 1022 -1487 11 -1530 681 -1105 148 -1423 712 -1162 136 -1299 755 -594 11c0,1332 272,905 -1249,779l-1185 147 -1172 806 -632 -1 -1132 817 -638 -3c0,1247 274,868 -1099,842l-619 -2c0,1246 281,878 -1071,864l-627 0c0,1229 280,868 -1045,878l-638 -5 -993 918 -1679 670c0,1295 320,969 -986,952l-630 -4 -950 978 -1650 696 -922 1020 -2519 1475 -884 1078 -2509 1518c0,1223 312,929 -894,923l-839 861 -874 965c-2950,2269 -5241,4608 -7565,7528l-962 879 -849 858c5,1209 301,898 -922,898l-1518 2504 -1083 884 -1467 2526 -1018 925 -703 1633 -980 956 3 632c22,1310 350,993 -942,993l-672 1674 -925 991 3 632c-11,1328 353,1050 -875,1050l10 651c23,1338 380,1052 -871,1052l-4 615c32,1373 410,1099 -839,1099l0 623 -817 1143 5 630 -804 1186 -161 1155c118,1530 554,1263 -769,1263l-6 613 -760 1284 -138 1162 -724 1390 -136 1135 -681 1532 -8 1495 -1024 1550 124 1763 -931 1781 25 2283 -824 2117 -4 4534 -930 4520 40 35827 240536 -1 0 240538 -240536 -1 128 99994c219,3290 191,8420 -1186,10740l256 6809 -960 4441 199 4265 -1125 3968 63 3312 -727 2454 75 3205 -1146 3030 224 2688 -998 2548 195 2050 -1081 2299 234 2574 -1097 2273 139 1853 -890 1930 23 2232 -909 1851 88 1693 -948 1742 118 1731 -954 1741 114 1713 -1005 1597 -10 1445 -661 1634 -9 1461 -1016 1553 6 1410 -684 1536 9 1461 -1055 1457 -11 1434 -694 1489 -143 1118 -704 1460 -134 1139 -707 1450 -138 1137 -721 1396 -140 1147 -725 1384 -142 1137c145,1637 628,1377 -734,1377l-8 597 -21 907 -876 928 4 646 -755 1278 -159 1144c88,1537 536,1283 -756,1283l2 622 -759 1287 -161 1153 -773 1229 1 625 -779 1232 -166 1156c69,1483 496,1225 -776,1225l1 630 -789 1201 -185 1124c128,1480 530,1198 -802,1198l2 617c58,1429 459,1162 -804,1162l4 645 -797 1175 -2 607 -819 1147 -1020 2896c95,1422 476,1138 -824,1138l6 638c57,1391 435,1114 -831,1114l3 637c23,1349 390,1071 -850,1071l-3 630c8,1355 384,1082 -847,1082l5 642c2,1343 373,1070 -855,1070l3 636c1,1341 373,1069 -854,1069l2 642c1,1324 361,1044 -868,1044l3 643c16,1319 365,1028 -883,1028l7 638c58,1356 409,1058 -875,1058l2 617c76,1363 421,1057 -884,1057l-1551 3370 -903 1018 5 642c-22,1294 325,1005 -905,1005l-8 619c28,1315 365,1012 -903,1012l-667 1691 -934 1000 2 635c-26,1275 308,973 -937,973l-672 1665 -934 1017 -1 626c-54,1261 284,963 -948,963l-686 1659 -960 971 0 632c4,1292 327,972 -962,972l-693 1647c-69,1245 261,936 -981,936l-710 1632 -986 939 -709 1627 -991 930 -714 1626 -1026 903 -696 1648c-36,1273 282,938 -1023,938l-735 1564 -866 951c-1,1205 299,902 -912,902l-714 1628 -923 897 -879 929 -733 1603 -1074 892 -1510 2492 -929 896c-4,1207 296,902 -915,902l-1522 2494 -972 876c7,1211 307,904 -911,904l-1533 2481 -972 873c3,1207 293,885 -946,885l-2346 3370 -962 878 -864 832c2,1207 290,882 -957,882l-3206 4202 -964 880 -848 858 -849 860 -847 857 -846 863c18,1212 302,882 -957,882l-13515 13509c0,1256 327,972 -882,956l-861 845 -859 849 -852 853 -848 853 -886 957 -4193 3213c0,1247 322,955 -892,950l-850 854 -878 957 -3357 2363c0,1235 318,944 -887,942l-873 964 -3378 2322c0,1265 335,983 -872,975l-921 895 -1574 756c0,1217 305,914 -911,912l-897 934 -2513 1497 -888 1073 -1581 744 -940 872 -908 916 -1602 734c0,1210 303,909 -905,907l-960 865 -1592 724c0,1278 328,958 -917,1020l-1618 720 -916 1016 -1631 714 -929 993 -1635 706 -931 994 -1643 702 -938 979 -1604 707c0,1308 328,988 -975,969l-668 -19 -969 960 -1657 688c0,1228 299,893 -956,946l-3298 1617c0,1236 298,898 -977,935l-632 -2 -1009 921 -1642 681c0,1314 316,976 -1035,920l-649 -20c0,1226 286,876 -1010,902l-645 -2 -1001 907 -3385 1543c0,1303 304,955 -1061,882l-580 9c0,1301 304,953 -1058,887l-659 -19c0,1245 288,893 -1034,878l-641 -2c0,1232 278,868 -1057,863l-638 -2c0,1221 275,858 -1049,862l-658 -2c0,1218 274,851 -1054,853l-644 -2c0,1230 272,857 -1082,844l-632 0c0,1246 277,874 -1083,846l-641 -5c0,1267 278,886 -1118,830l-621 -2c0,1301 286,921 -1135,828l-2895 1019 -1160 822 -600 -1 -1182 800 -632 -2c0,1250 267,854 -1142,810l-643 -2c0,1306 280,915 -1164,807l-1158 169 -1208 785 -632 -1c0,1275 259,849 -1222,777l-2998 954 -1221 773 -1165 153 -1287 760 -622 0c0,1292 255,845 -1275,760l-1110 167 -1320 740 -645 -2c0,1356 266,902 -1315,744l-1147 150c0,1334 252,850 -1373,731l-1130 148 -1361 733 -1158 135 -1396 721 -1054 165 -1529 686 -1130 136 -1409 718 -1179 121 -1475 699 -1391 14 -1525 1028 -1427 23 -1514 686 -1448 -20 -1551 1018 -1431 22 -1642 658 -1475 0 -1591 1004 -1682 -114 -1742 945 -1771 -118 -1661 980 -2268 -46 -1876 896 -1691 -83 -1875 914 -1922 -152 -2280 1089 -2560 -223 -2295 1082 -1834 -119 -2212 792 -2964 53 -1710 928 -1900 -71 -3642 109 -2382 733 -10959 767 -5008 1070 -8292 -160c-1907,883 -1738,798 -4511,960 -1512,90 -2758,44 -4233,-9l-19027 66c-3299,216 -8432,199 -10745,-1184l-6163 326 -5008 -1070 -3434 127 -3032 -804 -5902 -179 -2365 -736 -2560 130 -3036 -1146 -1914 174 -1725 48 -1666 -942 -1977 140 -2296 -1082 -2554 221 -2279 -1096 -1341 203 -1255 -134 -1368 -750 -1531 10 -1869 -896 -1708 90 -1665 -974 -2236 62 -1782 -936 -1739 116 -1596 -1007 -1215 195 -1560 -1024 -1768 147 -1560 -1010 -1355 -14 -1534 -686 -1437 6 -1527 -1024 -1445 -15 -1477 -700 -1103 -152 -1457 -703 -1081 -150 -1533 -686 -1133 -133 -1395 -721 -1078 -167 -1420 -715 -1085 -165c-1668,152 -1414,651 -1414,-712l-1165 -136c-1592,165 -1321,619 -1321,-756l-615 -1 -1277 -760 -1183 -136c-1543,123 -1278,565 -1278,-763l-617 -8 -1287 -746 -1142 -169c-1477,59 -1221,487 -1221,-776l-629 1 -1203 -787 -1190 -152c-1503,109 -1234,533 -1234,-779l-611 -8 -1207 -777 -2943 -988c-1424,64 -1153,459 -1153,-809l-629 2 -1188 -797 -6406 -2668c-1396,76 -1117,453 -1117,-820l-650 0c-1356,25 -1082,397 -1082,-840l-648 4c-1332,11 -1053,374 -1053,-859l-653 3c-1338,14 -1062,380 -1062,-852l-649 2c-1333,10 -1057,375 -1057,-853l-643 0c-1334,4 -1055,369 -1055,-866l-659 23c-1347,42 -1047,390 -1047,-893l-593 -10c-1342,57 -1042,400 -1042,-881l-5076 -2420 -995 -908 -646 2c-1307,-10 -1016,339 -1016,-902l-610 0c-1332,46 -1026,385 -1026,-900l-1690 -668 -993 -936 -638 2c-1282,-22 -978,313 -978,-937l-1663 -678 -1004 -933 -644 2c-1260,-39 -956,291 -956,-948l-1645 -694 -965 -960 -642 0c-1291,11 -968,330 -968,-962l-1659 -685c-1252,-54 -938,273 -938,-981l-1624 -710 -930 -994 -1634 -707 -931 -983 -1629 -714 -916 -1026 -1618 -718c-1255,-44 -922,271 -922,-1020l-1595 -722 -955 -859c-1213,7 -906,306 -906,-913l-1597 -737 -915 -906c-1216,2 -922,312 -922,-886l-1602 -737 -886 -936c-1218,8 -921,315 -921,-888l-1587 -747 -907 -920c-1204,5 -899,303 -899,-912l-2494 -1530 -866 -972c-1215,2 -909,304 -909,-913l-2492 -1540 -870 -955c-1197,-2 -872,284 -872,-958l-3353 -2367 -893 -940 -857 -848c-1208,5 -877,290 -877,-968l-4199 -3204 -882 -958 -858 -848 -849 -855 -860 -849 -854 -846c-1207,4 -875,288 -875,-973l-13512 -13504c-1262,0 -979,333 -972,-875l-844 -859 -851 -857 -857 -849 -845 -861 -953 -886 -3214 -4195c-1251,0 -963,325 -953,-885l-854 -851 -951 -884 -2358 -3354c-1244,0 -956,324 -958,-876l-962 -877 -1534 -2484c-1217,0 -915,305 -913,-910l-968 -872 -1526 -2489 -931 -882 -921 -904 -746 -1593c-1200,0 -890,293 -882,-928l-933 -894 -742 -1592 -883 -930 -911 -912 -724 -1612c-1216,0 -917,307 -915,-902l-857 -960 -733 -1578c-1296,0 -977,333 -1016,-934l-713 -1620 -1024 -910 -725 -1613 -984 -935 -700 -1647 -999 -924 -702 -1639c-1247,0 -917,311 -983,-938l-696 -1633c-1297,0 -971,321 -958,-984l3 -637 -963 -959 -695 -1647c-1237,0 -905,304 -955,-952l4 -641 -925 -1017 -683 -1657c-1246,0 -907,300 -928,-987l6 -646 -936 -989 -675 -1665c-1294,0 -951,307 -903,-1038l1 -623c-1236,0 -892,292 -907,-1004l2 -641 -909 -1002 -1548 -3379c-1313,0 -962,304 -875,-1076l-1 -601c-1290,0 -945,303 -887,-1046l10 -640c-1254,0 -897,287 -874,-1051l3 -637c-1232,0 -874,282 -871,-1042l2 -642c-1230,0 -859,274 -852,-1072l4 -640c-1229,0 -858,275 -852,-1071l-3 -629c-1236,0 -868,277 -854,-1069l5 -642c-1244,0 -869,275 -844,-1089l2 -633c-1267,0 -886,278 -830,-1118l2 -620c-1301,0 -921,285 -828,-1137l-1832 -4670 -803 -1162 -4 -623c-1279,0 -873,269 -801,-1177l12 -638c-1324,0 -928,283 -807,-1181l-182 -1137 -789 -1196 -2 -625c-1286,0 -859,261 -776,-1229l-171 -1143 -771 -1246 1 -632 -784 -1201 -168 -1144 -745 -1290 6 -660c-1294,0 -847,256 -758,-1275l-160 -1129 -755 -1291 2 -631c-1351,0 -895,264 -746,-1317l-144 -1169c-1328,0 -858,255 -737,-1342l-142 -1157 -732 -1352 -142 -1154 -721 -1397 -143 -1116 -707 -1446 -131 -1158 -712 -1427 -139 -1132 -702 -1466 16 -1480 -1064 -1432 -3 -1461 -684 -1529 1 -1392 -1013 -1557 -2 -1493 -662 -1627 -21 -1424 -1007 -1595 133 -1738 -950 -1745 108 -1717 -952 -1731 30 -2216 -895 -1876 73 -1706 -892 -1926 63 -1689 -875 -1941 86 -3063 -1086 -2280 200 -2058 -994 -2561 222 -2668 -1146 -3033 65 -3204 -726 -2459 -23 -3106 -967 -2506 48 -2527 89 -3423 -965 -4436 243 -6066c-1317,-2227 -1390,-6855 -1157,-9943l0 -22270c-235,-3095 -156,-7726 1151,-9956l-256 -5359 959 -4435 -115 -4256 977 -3467 19 -4521 725 -2465 -67 -3210 1142 -3046 -244 -2122 1006 -2492 -191 -2676 1090 -2272 -242 -2064 1094 -2259 -130 -2376 894 -1928 -30 -2234 907 -1873 -90 -1691 958 -1722 -103 -1710 950 -1740 -119 -1724 1000 -1603 5 -1448 663 -1627 10 -1476 1014 -1559 -7 -1394 683 -1532 5 -1460 1062 -1438 -7 -1456 703 -1458 129 -1161 707 -1446 139 -1128 707 -1449 133 -1152 721 -1393 147 -1134 734 -1348 143 -1154c-118,-1607 -595,-1354 733,-1354l144 -1163c-151,-1582 -606,-1316 749,-1316l-2 -631 751 -1293 165 -1120c-90,-1549 -546,-1297 750,-1297l-4 -640 754 -1284 167 -1145 783 -1203 -4 -633 773 -1246 171 -1143c-82,-1491 -510,-1229 776,-1229l2 -624 787 -1203 171 -1150c-128,-1477 -528,-1192 809,-1192l0 -606c-55,-1432 -459,-1167 802,-1167l-2 -637 806 -1159 1004 -2914c-126,-1445 -504,-1151 832,-1151l-3 -605c-92,-1418 -471,-1132 828,-1132l-3 -624c-55,-1397 -436,-1121 829,-1121l-2 -634c-21,-1357 -393,-1082 845,-1082l1 -635c-5,-1344 -376,-1071 853,-1071l-5 -640c-6,-1345 -377,-1072 853,-1072l-2 -640c-4,-1342 -374,-1069 853,-1069l-2 -638c-2,-1339 -370,-1062 862,-1062l0 -627c-6,-1321 -359,-1034 882,-1034l-5 -639c-45,-1345 -396,-1049 880,-1049l-4 -615c-78,-1372 -428,-1069 879,-1069l1547 -3385 903 -1011 4 -625c34,-1288 -314,-1000 911,-1000l-6 -631c-43,-1339 -385,-1033 905,-1033l679 -1654 931 -1014 -13 -645c34,-1275 -304,-975 938,-975l1604 -3310c57,-1259 -279,-957 957,-957l685 -1667 958 -958 2 -629c-12,-1305 -338,-982 963,-982l695 -1632c64,-1249 -266,-938 983,-938l703 -1641 989 -931 713 -1628 986 -934 714 -1633 1017 -917 728 -1601c48,-1262 -273,-933 1016,-933l711 -1603c5,-1244 -322,-964 870,-952l918 -892 731 -1608 917 -897 883 -932 720 -1614 946 -881c-1,-1223 -314,-931 884,-931l759 -1569 913 -919c-13,-1219 -315,-915 902,-915l1540 -2462 978 -874c-8,-1217 -311,-913 906,-913l1533 -2491 966 -868c6,-1198 -281,-874 962,-874l2362 -3349 948 -888 850 -853c-6,-1211 -296,-888 949,-888l3221 -4190 951 -890 854 -851 853 -852 847 -859 849 -858c-12,-1209 -294,-876 967,-876l13505 -13513c0,-1260 -330,-976 880,-964l858 -848 855 -851 852 -853 858 -848 882 -959 4206 -3207c0,-1247 -324,-957 882,-955l844 -855 881 -948 3364 -2358 869 -962 868 -970 2493 -1529c0,-1216 -305,-914 909,-909l870 -973 2494 -1527c0,-1213 -305,-913 902,-911l904 -923 1587 -748c0,-1200 -295,-894 919,-888l883 -938 1612 -726 928 -888 901 -914 1601 -735c0,-1214 -307,-917 896,-917 -11,-1192 -291,-866 951,-865l1609 -710c0,-1291 -333,-975 922,-1019l1610 -720 924 -1024 1629 -715 922 -986 1637 -706 930 -994 1631 -708c0,-1247 -312,-919 936,-981l1646 -691c0,-1298 -323,-974 979,-962l643 3 958 -963 1649 -693c0,-1235 -303,-900 957,-957l621 3 1030 -921 1663 -678c0,-1247 -303,-913 973,-939l637 2 1000 -938 1679 -667c0,-1283 -304,-941 1032,-898l617 0c0,-1236 -290,-885 1011,-911l625 2 1024 -898 3380 -1558c0,-1296 -303,-949 1055,-878l616 -1c0,-1283 -295,-928 1065,-869l593 -6c0,-1280 -300,-932 1043,-895l652 20c0,-1230 -280,-869 1049,-866l661 3c0,-1225 -275,-861 1057,-850l649 2c0,-1229 -277,-866 1057,-855l650 3c0,-1230 -278,-866 1056,-860l640 3c0,-1238 -274,-864 1084,-845l639 2c0,-1264 -276,-882 1119,-827l625 2c0,-1298 -285,-919 1131,-828l4678 -1829 1151 -803 657 2c0,-1259 -268,-865 1146,-803l2950 -986 1207 -779 604 -9c0,-1310 -268,-885 1234,-780l1157 -163 1244 -774 623 1c0,-1262 -255,-833 1222,-778l1144 -169 1280 -747 617 -8c0,-1325 -264,-880 1282,-761l1189 -134 1267 -764 627 2c0,-1361 -268,-905 1320,-751l1163 -141c0,-1342 -254,-861 1372,-724l1121 -155 1378 -725 1121 -156 1386 -722 1168 -129 1482 -699 1104 -138 1463 -702 1112 -149 1473 -700 1470 2 1424 -1064 1475 11 1528 -686 1374 -1 1560 -1011 1789 149 1560 -1027 1185 188 1596 -1010 1762 135 1795 -932 1630 76 1775 -939 2182 28 1873 -894 1542 10 1368 -750 1255 -133 1166 121 1941 -879 3051 81 2282 -1083 2107 208 2536 -1002 2655 226 3032 -1149 3204 65 2446 -731 5195 -125 3032 -803 3437 137 4996 -1073 5235 167 6243 -920 105431 6 -78 -39447c-59,-1654 -66,-3253 44,-4936 42,-633 134,-1921 241,-2515 368,-2043 511,-1514 732,-1972l-160 -8286 959 -4434 -115 -4257 977 -3467 -82 -4033 909 -2805 -150 -3357 1142 -3046 -244 -2122 1006 -2492 -191 -2676 1090 -2272 -242 -2064 1094 -2260 -130 -2375 894 -1928 -30 -2234 907 -1873 -90 -1691 958 -1722 -103 -1710 950 -1740 -119 -1724 1000 -1602 5 -1449 662 -1627 11 -1476 1014 -1560 -7 -1393 683 -1532 5 -1460 1062 -1438 -7 -1456 703 -1458 129 -1161 707 -1446 139 -1128 707 -1449 133 -1152 721 -1393 147 -1134 733 -1348 144 -1154c-119,-1607 -595,-1354 733,-1354l144 -1162c-151,-1583 -606,-1317 748,-1317l-1 -630 751 -1293 165 -1120c-90,-1550 -546,-1297 750,-1297l-4 -641 754 -1284 167 -1144 783 -1204 -4 -633 773 -1246 171 -1143c-82,-1491 -510,-1229 776,-1229l2 -624 787 -1202 171 -1151c-128,-1477 -528,-1193 809,-1193l0 -605c-55,-1432 -459,-1167 802,-1167l-2 -637 806 -1159 1004 -2914c-126,-1445 -504,-1151 832,-1151l-3 -605c-92,-1418 -471,-1132 828,-1132l-3 -624c-55,-1397 -436,-1121 829,-1121l-2 -634c-21,-1357 -393,-1082 845,-1082l1 -635c-5,-1344 -376,-1071 853,-1071l-5 -640c-6,-1345 -377,-1071 853,-1071l-2 -641c-4,-1342 -374,-1069 853,-1069l-2 -638c-2,-1339 -370,-1062 862,-1062l0 -627c-6,-1321 -359,-1034 882,-1034l-6 -639c-45,-1345 -395,-1049 881,-1049l-4 -615c-78,-1372 -428,-1068 879,-1068l1547 -3386 903 -1011 4 -626c34,-1287 -314,-998 911,-998l-6 -632c-43,-1339 -385,-1033 905,-1033l679 -1654 931 -1014 -13 -645c34,-1274 -304,-975 938,-975l1604 -3310c57,-1259 -279,-957 957,-957l685 -1667 958 -959 2 -628c-12,-1305 -338,-982 963,-982l695 -1632c64,-1249 -266,-938 983,-938l703 -1641 989 -930 713 -1628 986 -935 714 -1633 1016 -917 729 -1601c48,-1262 -273,-933 1016,-933l711 -1603c5,-1244 -323,-964 870,-952l918 -892 731 -1608 916 -897 884 -932 720 -1614 946 -881c-1,-1222 -314,-930 884,-930l759 -1570 913 -919c-13,-1219 -315,-915 902,-915l1540 -2462 978 -874c-8,-1217 -311,-913 906,-913l1533 -2492 966 -868c6,-1197 -281,-873 962,-873l2362 -3349 948 -888 850 -853c-6,-1211 -296,-888 949,-888l3220 -4190 952 -890 854 -851 853 -852 847 -859 849 -858c-12,-1209 -294,-876 967,-876l13504 -13513c0,-1260 -329,-975 881,-964l858 -848 855 -851 852 -853 858 -848 882 -959 4206 -3207c0,-1247 -324,-957 882,-955l844 -855 881 -948 3364 -2360 869 -960 868 -969 2493 -1530c0,-1216 -305,-914 909,-909l870 -973 2494 -1527c0,-1213 -305,-913 902,-911l904 -923 1587 -748c0,-1200 -295,-894 919,-888l883 -938 1612 -726 928 -888 901 -914 1601 -735c0,-1214 -307,-917 896,-917 -11,-1192 -291,-866 951,-865l1609 -710c0,-1291 -333,-975 922,-1019l1610 -720 924 -1025 1629 -713 922 -987 1637 -705 930 -995 1631 -707c0,-1248 -312,-920 935,-982l1647 -691c0,-1298 -323,-974 979,-962l643 3 957 -963 1649 -693c0,-1235 -302,-900 957,-956l622 2 1030 -921 1663 -678c0,-1247 -303,-913 973,-939l637 2 1000 -938 1679 -668c0,-1282 -304,-940 1032,-897l617 0c0,-1236 -291,-885 1011,-911l624 2 1024 -898 3381 -1558c0,-1295 -303,-949 1055,-878l615 0c0,-1284 -294,-929 1067,-870l593 -6c0,-1280 -300,-933 1043,-894l652 19c0,-1230 -280,-869 1049,-866l661 3c0,-1225 -275,-861 1057,-850l649 2c0,-1229 -277,-866 1057,-855l650 3c0,-1230 -278,-865 1056,-859l640 2c0,-1238 -275,-864 1084,-845l638 2c0,-1264 -275,-882 1120,-827l625 2c0,-1298 -285,-919 1131,-828l4678 -1829 1151 -803 657 2c0,-1259 -269,-865 1146,-803l2950 -986 1207 -779 604 -9c0,-1310 -268,-885 1234,-780l1157 -163 1244 -774 623 1c0,-1261 -255,-833 1222,-778l1144 -169 1280 -747 617 -8c0,-1325 -264,-880 1282,-761l1189 -134 1267 -764 627 2c0,-1361 -268,-905 1320,-751l1163 -141c0,-1342 -254,-861 1371,-724l1122 -155 1378 -725 1121 -156 1386 -723 1168 -128 1482 -699 1104 -138 1463 -701 1111 -150 1474 -700 1470 2 1424 -1064 1475 11 1528 -686 1374 -1 1560 -1011 1789 149 1560 -1027 1185 188 1596 -1010 1762 135 1795 -932 1630 76 1775 -939 1657 84 1874 -905 2066 -35 1368 -750 1255 -133 1166 121 1941 -879 3051 81 2282 -1083 2107 207 2536 -1001 2655 226 3032 -1149 3204 65 2446 -731 5195 -125 3032 -803 3437 137 4996 -1073 5235 166 6243 -919 286261 5 0 240535 -277875 -38 -4211 1026zm-218102 -599764l10331 0c20731,117 41364,954 61726,2503 102950,7830 215250,37293 308441,83920l51089 27384c27098,16029 53787,32635 78959,51544l29926 22957c28662,23418 55230,48654 81482,74610l19195 20895c17770,17521 57192,70461 68862,88082l35237 56029c8878,15882 28986,52702 35442,68619l30082 74832c2181,6547 4838,12862 6715,19727 1760,6436 4040,12935 6077,19512 4057,13101 7506,27235 10983,41047 7149,28395 11940,56898 16575,88338 2389,16213 3173,31049 4879,47152 1990,18790 2369,39568 2428,59797l0 22218c0,68318 -14550,163744 -35292,227419l-34887 95617c-2713,6349 -5149,11368 -7800,17788 -1423,3444 -2826,5899 -4475,9172 -1667,3307 -2405,5430 -3975,8819 -6832,14745 -19319,37471 -27378,51095 -12748,21552 -25511,43487 -40448,63612l-28396 38135c-26618,35731 -79689,91431 -118563,122825 -1328,1073 -1844,1722 -3172,2798 -24428,19779 -49278,38320 -75053,56303l-32379 20505c-26683,16085 -65247,37402 -94104,49192 -21826,8918 -42968,18291 -65461,25806 -3430,1147 -6088,2336 -10008,3638l-29226 9158c-13363,3894 -26995,7475 -41042,10988 -28259,7067 -56942,12162 -88348,16566 -44109,6185 -83593,7316 -129157,7316 -68316,0 -163751,-14552 -227419,-35292 -6784,-2209 -13959,-4636 -20123,-6320 -15205,-4155 -41845,-13995 -56942,-20677l-27437 -11800c-15251,-6197 -29618,-14177 -44233,-21445 -28871,-14357 -71037,-39180 -97368,-58723 -20077,-14902 -40160,-29482 -59314,-45602 -23775,-20008 -45451,-41318 -67441,-63060l-19195 -20895c-2619,-2583 -3413,-4281 -5955,-6839 -2546,-2560 -3506,-4227 -5976,-6819l-5876 -6917c-21869,-27010 -42340,-54469 -61635,-83368 -1933,-2896 -3272,-4738 -5048,-7747 -12973,-21973 -26225,-43415 -37814,-66247 -5702,-11235 -12578,-23307 -17236,-34793l-26812 -65308c-20659,-52361 -35783,-122421 -43611,-178158 -6192,-44096 -7316,-83606 -7316,-129157 0,-34002 3516,-67669 7425,-97488 7752,-59119 21386,-113963 40670,-169159 17288,-49479 39045,-98183 65712,-143264l25057 -40621c1834,-2735 3086,-5113 5036,-7758 3808,-5162 6583,-10149 10355,-15233l34137 -45189c23048,-28930 48592,-55336 74525,-81567l20895 -19195c2583,-2619 4281,-3413 6839,-5955l10564 -9054c34298,-27698 56757,-45034 94206,-69561 3069,-2009 5363,-3183 8522,-5126l23980 -14403c6062,-3389 10821,-6060 17042,-9401 16909,-9078 34005,-18348 51704,-25914 39499,-16887 71510,-31109 114053,-42891l40939 -11092c62266,-15675 129409,-23488 195829,-23882z"/>
   <polygon class="fil0" points="745486,960432 986021,960432 986021,719897 745486,719897 "/>
   <path class="fil0" d="M644229 961416l-3327 -89 -2121 819 -2290 -26 -1777 930 -1760 -118 -1554 1021 -1489 12 -1529 679 -1107 150 -1421 710 -1163 138 -1297 754 -600 12c0,1326 271,900 -1244,777l-1187 149 -1169 805 -635 0 -1129 815 -642 0c0,1240 273,863 -1095,839l-622 0c0,1242 279,874 -1068,862l-631 2c0,1225 279,864 -1041,876l-640 -3 -991 917 -1686 671c0,1286 318,962 -979,949l-632 -1 -948 978 -1653 697 -919 1018 -2524 1476 -879 1076 -2511 1521c0,1221 310,927 -894,923l-839 861 -872 963c-2953,2274 -5239,4609 -7569,7530l-960 877 -849 859c4,1207 301,897 -921,897l-1519 2507 -1082 880 -1468 2530 -1017 923 -704 1635 -979 954 0 634c18,1301 345,986 -939,986l-672 1681 -924 988 0 635c-13,1323 351,1046 -872,1046l7 655c21,1333 377,1047 -869,1047l-6 620c30,1368 407,1094 -837,1094l-2 628 -814 1139 3 634 -802 1184 -164 1157c115,1523 550,1258 -766,1258l-8 617 -758 1283 -141 1164 -721 1388 -139 1138 -679 1530 -9 1497 -1023 1546 123 1768 -930 1778 24 2286 -822 2114 -7 4536 -928 4513 21 10957 964 4448 -50 3898 820 2121 -68 1770 915 1797 -64 2254 1022 1559 18 1481 677 1533 141 1131 723 1373 142 1174 753 1290 8 617c1322,0 889,-268 769,1257l158 1170 808 1165 0 634 816 1127 -2 649c1236,0 852,-269 827,1110l1 635c1233,0 874,-282 867,1044l5 629c1226,0 863,-279 874,1046l-3 637 924 992 678 1669c1289,0 963,-317 939,988l-6 645 978 952 706 1631 1015 928 1462 2547 1083 872 1527 2498c1221,0 923,-309 917,900l848 859 965 874c2355,2939 4614,5182 7547,7544l876 959 855 851c1203,-4 893,-299 893,922l2500 1527 876 1074 2540 1471 919 1020 1653 697 948 976 634 -1c1296,-10 985,-339 985,934l1689 673 980 930 635 2c1315,23 1039,-341 1039,875l645 -3c1343,-8 1065,-376 1065,862l623 0c1360,-19 1087,-395 1087,841l650 0 1123 816 636 0 1176 803 1181 152c1524,-123 1254,-554 1254,774l606 7 1302 749 1151 147 1411 712 1384 9 1466 1051 1287 -218 1548 1022 1771 -125 1767 931 2288 -24 2129 816 3322 -80 4191 1032 13284 -3 4196 -1028 3317 79 2133 -815 2290 24 1767 -932 1476 -11 1630 -658 1496 -7 1467 -1048 1468 13 1308 -741 1175 -145 1299 -749 634 0c0,-1337 -259,-874 1330,-738l1078 -197 1175 -803 632 -3 1123 -817 639 -1c0,-1240 -274,-866 1090,-837l642 4c0,-1242 -279,-874 1068,-860l623 0c0,-1226 -278,-863 1046,-873l649 0 987 -923 1683 -671c0,-1275 -314,-951 976,-941l642 -3 948 -967 1645 -702 920 -1016 2540 -1470 876 -1077 2504 -1524c0,-1228 -314,-934 892,-933l852 -853 879 -959 7550 -7542 953 -882 855 -848c-4,-1207 -299,-895 928,-895l1522 -2503 1082 -877 1466 -2540 1016 -919 699 -1653 967 -953 7 -630c-6,-1290 -331,-976 943,-976l673 -1687 916 -994 0 -637c19,-1322 -347,-1045 872,-1045l0 -639c-6,-1326 -364,-1045 868,-1045l-4 -644c-31,-1364 -405,-1089 839,-1089l-3 -649 813 -1132 4 -626 809 -1156 168 -1158c-105,-1506 -534,-1242 768,-1242l0 -644 745 -1314 149 -1143 718 -1396 6 -1408 1052 -1458 4 -1505 656 -1639 69 -1962 925 -1773 -69 -1776 817 -2134 71 -4447 807 -3991 18 -96138 -97047 -40 -4209 1024z"/>
  </g>
 </g>
</svg>
